<svg width="571" height="299" viewBox="0 0 571 299" fill="none" xmlns="http://www.w3.org/2000/svg">
<path d="M7.69642 259.898V185.189H62.7783V201.017H24.7908V215.157H56.7636V230.352H24.7908V244.175H62.7783V259.898H7.69642ZM69.4261 259.898V204.288H86.2039V224.76H94.2235L106.78 204.288H125.563L108.574 230.352L125.247 259.898H106.042L94.9621 239.743H86.2039V259.898H69.4261ZM145.098 260.742C142.706 260.742 140.384 260.39 138.133 259.687C135.953 258.983 133.948 257.928 132.119 256.521C130.36 255.114 128.953 253.356 127.898 251.245C126.913 249.135 126.421 246.673 126.421 243.859C126.421 239.849 127.23 236.683 128.848 234.362C130.536 231.97 132.787 230.211 135.601 229.086C138.485 227.89 141.756 227.116 145.414 226.764C149.072 226.413 152.871 226.237 156.811 226.237H162.087C162.087 224.478 161.735 222.966 161.031 221.699C160.398 220.363 159.413 219.308 158.077 218.534C156.74 217.76 155.087 217.373 153.117 217.373C151.71 217.373 150.374 217.584 149.108 218.006C147.912 218.358 146.892 218.886 146.047 219.589C145.274 220.222 144.746 221.031 144.465 222.016H127.687C128.179 218.71 129.199 215.896 130.747 213.574C132.365 211.182 134.335 209.248 136.656 207.771C139.048 206.293 141.721 205.203 144.676 204.5C147.63 203.726 150.655 203.339 153.75 203.339C159.238 203.339 163.74 204.359 167.257 206.399C170.845 208.439 173.518 211.429 175.277 215.368C177.106 219.308 178.02 224.197 178.02 230.036V259.898H162.72L162.614 253.461C161.067 255.29 159.343 256.767 157.444 257.893C155.615 258.948 153.68 259.687 151.64 260.109C149.6 260.531 147.419 260.742 145.098 260.742ZM150.163 247.763C152.344 247.763 154.348 247.271 156.177 246.286C158.006 245.301 159.484 244.035 160.609 242.487C161.735 240.939 162.298 239.286 162.298 237.528V236.894H152.062C150.726 236.894 149.494 236.965 148.369 237.105C147.314 237.246 146.364 237.528 145.52 237.95C144.746 238.301 144.113 238.829 143.62 239.532C143.198 240.166 142.987 241.01 142.987 242.065C142.987 243.261 143.269 244.316 143.831 245.231C144.465 246.075 145.309 246.708 146.364 247.13C147.49 247.552 148.756 247.763 150.163 247.763ZM199.786 259.898V219.167H182.058V204.288H234.396V219.167H216.458V259.898H199.786ZM264.335 260.742C258.566 260.742 253.572 259.581 249.351 257.26C245.2 254.938 241.999 251.667 239.748 247.446C237.497 243.155 236.372 238.125 236.372 232.357C236.372 226.589 237.532 221.524 239.854 217.162C242.175 212.8 245.411 209.389 249.562 206.926C253.783 204.464 258.742 203.233 264.44 203.233C268.52 203.233 272.178 203.902 275.414 205.238C278.65 206.575 281.394 208.474 283.645 210.936C285.896 213.328 287.62 216.212 288.815 219.589C290.011 222.966 290.574 226.694 290.504 230.774C290.504 231.829 290.469 232.885 290.398 233.94C290.328 234.925 290.152 235.945 289.871 237H252.938C253.149 238.759 253.677 240.377 254.521 241.854C255.365 243.331 256.561 244.492 258.109 245.336C259.657 246.18 261.626 246.602 264.018 246.602C265.706 246.602 267.219 246.426 268.555 246.075C269.962 245.653 271.123 245.09 272.038 244.386C272.952 243.613 273.55 242.768 273.832 241.854H290.293C289.378 246.286 287.62 249.909 285.017 252.723C282.414 255.466 279.319 257.506 275.731 258.843C272.143 260.109 268.344 260.742 264.335 260.742ZM253.255 225.709H274.676C274.676 224.232 274.289 222.79 273.515 221.383C272.811 219.976 271.686 218.85 270.138 218.006C268.591 217.092 266.586 216.634 264.124 216.634C261.732 216.634 259.727 217.092 258.109 218.006C256.491 218.921 255.295 220.081 254.521 221.488C253.747 222.895 253.325 224.302 253.255 225.709Z" fill="#671120"/>
<mask id="path-2-outside-1_150_2762" maskUnits="userSpaceOnUse" x="283.256" y="193.525" width="238" height="105" fill="black">
<rect fill="white" x="283.256" y="193.525" width="238" height="105"/>
<path d="M285.005 297.497C284.728 297.589 284.544 297.359 284.452 296.807C284.268 296.254 284.36 295.932 284.728 295.84C286.569 295.38 287.95 294.827 288.871 294.183C289.699 293.631 290.344 292.618 290.804 291.145C291.264 289.765 291.724 287.739 292.185 285.07L306.269 206.227C306.269 205.951 306.821 205.537 307.926 204.984C309.03 204.34 310.319 203.557 311.792 202.637C313.357 201.716 314.738 200.658 315.934 199.461C317.223 198.172 318.051 196.838 318.42 195.457C318.604 195.089 318.926 194.951 319.386 195.043C319.846 195.135 320.031 195.365 319.938 195.733L304.336 284.103C303.691 287.693 303.783 289.949 304.612 290.869C305.532 291.79 307.603 292.066 310.825 291.698C311.194 291.698 311.47 291.928 311.654 292.388C311.838 292.848 311.7 293.124 311.24 293.217L285.005 297.497ZM314.277 259.663C311.976 259.663 309.675 259.525 307.373 259.249C305.164 258.973 303.415 258.697 302.126 258.421L303.507 249.86C305.44 251.333 307.649 252.667 310.135 253.864C312.62 254.969 315.704 255.521 319.386 255.521C322.516 255.521 325.139 254.37 327.257 252.069C329.374 249.676 331.077 246.5 332.366 242.542C333.746 238.583 334.713 234.119 335.265 229.148C335.633 226.202 335.541 223.441 334.989 220.863C334.529 218.286 333.424 216.169 331.675 214.512C330.018 212.855 327.487 212.026 324.081 212.026C320.031 212.026 315.842 213.039 311.516 215.064C307.189 216.997 302.356 219.851 297.017 223.625C296.649 223.993 296.281 223.947 295.913 223.487C295.637 223.027 295.683 222.612 296.051 222.244C301.942 217.365 308.11 213.315 314.553 210.093C321.089 206.871 327.441 205.26 333.608 205.26C339.131 205.26 343.09 206.917 345.483 210.231C347.876 213.545 348.613 218.332 347.692 224.591C347.048 229.286 345.621 233.751 343.412 237.985C341.295 242.219 338.671 245.994 335.541 249.308C332.504 252.529 329.144 255.061 325.462 256.902C321.78 258.743 318.051 259.663 314.277 259.663ZM360.848 261.32C356.981 261.32 354.22 259.848 352.563 256.902C350.998 253.864 350.814 249.261 352.011 243.094L356.843 218.516C357.304 215.846 357.304 214.097 356.843 213.269C356.475 212.441 355.877 212.026 355.048 212.026C354.128 212.026 353.069 212.487 351.872 213.407C350.676 214.328 349.341 215.478 347.868 216.859C347.5 217.227 347.132 217.227 346.764 216.859C346.395 216.491 346.395 216.123 346.764 215.754C349.709 212.256 352.379 209.587 354.772 207.746C357.165 205.905 359.697 204.984 362.366 204.984C365.128 204.984 367.061 206.043 368.166 208.16C369.362 210.277 369.454 213.729 368.442 218.516L364.161 240.47C363.241 244.889 363.149 248.157 363.885 250.274C364.622 252.391 365.956 253.45 367.89 253.45C370.559 253.45 373.275 251.701 376.036 248.203C378.89 244.705 381.559 239.596 384.045 232.876C386.53 226.064 388.601 217.734 390.258 207.884L392.744 208.022C390.995 218.884 388.509 228.32 385.287 236.328C382.066 244.337 378.384 250.504 374.241 254.831C370.099 259.157 365.634 261.32 360.848 261.32ZM389.154 260.768C386.208 260.768 384.275 259.755 383.354 257.73C382.526 255.613 382.434 252.667 383.078 248.893L390.258 207.884C390.719 206.043 393.296 205.122 397.991 205.122C399.832 205.122 401.028 205.26 401.581 205.537C402.225 205.813 402.547 206.043 402.547 206.227C402.547 206.595 402.317 207.792 401.857 209.817C401.397 211.842 400.936 214.051 400.476 216.445L394.815 247.236C393.986 251.747 394.677 254.002 396.886 254.002C397.807 254.002 398.911 253.542 400.2 252.621C401.581 251.701 403.146 250.32 404.895 248.479C405.171 248.111 405.493 248.157 405.861 248.617C406.229 248.985 406.275 249.354 405.999 249.722C402.685 253.68 399.694 256.534 397.024 258.283C394.447 259.94 391.823 260.768 389.154 260.768ZM413.122 260.63C411.373 260.63 410.177 260.492 409.532 260.216C408.888 260.032 408.566 259.802 408.566 259.525C408.566 259.157 408.796 257.96 409.256 255.935C409.808 253.91 410.269 251.701 410.637 249.308L416.298 218.516C417.126 214.005 416.436 211.75 414.227 211.75C413.306 211.75 412.156 212.21 410.775 213.131C409.486 214.051 407.967 215.432 406.218 217.273C405.942 217.641 405.62 217.641 405.252 217.273C404.884 216.813 404.837 216.399 405.114 216.031C408.428 212.072 411.419 209.265 414.089 207.608C416.758 205.859 419.382 204.984 421.959 204.984C424.905 204.984 426.838 206.043 427.759 208.16C428.679 210.185 428.771 213.085 428.035 216.859L420.855 257.868C420.394 259.709 417.817 260.63 413.122 260.63ZM419.06 234.533L419.474 231.219H452.889L452.475 234.533H419.06ZM448.747 260.768C445.801 260.768 443.868 259.755 442.947 257.73C442.119 255.613 442.027 252.667 442.671 248.893L449.851 207.884C450.311 206.043 452.889 205.122 457.584 205.122C459.425 205.122 460.621 205.26 461.174 205.537C461.818 205.813 462.14 206.043 462.14 206.227C462.14 206.595 461.91 207.792 461.45 209.817C460.989 211.842 460.529 214.051 460.069 216.445L454.408 247.236C453.579 251.747 454.27 254.002 456.479 254.002C458.412 254.002 461.036 252.161 464.349 248.479C464.718 248.111 465.086 248.157 465.454 248.617C465.822 248.985 465.868 249.354 465.592 249.722C462.278 253.68 459.287 256.534 456.617 258.283C453.947 259.94 451.324 260.768 448.747 260.768ZM473.11 261.32C469.98 261.32 467.495 260.216 465.654 258.006C463.905 255.705 463.398 252.023 464.135 246.96C464.779 242.266 466.344 237.479 468.829 232.6C471.407 227.629 474.537 223.027 478.219 218.792C481.993 214.466 485.951 211.014 490.094 208.436C494.328 205.767 498.378 204.432 502.244 204.432C504.086 204.432 505.973 204.8 507.906 205.537C509.839 206.181 511.496 207.286 512.877 208.85C514.349 210.323 515.178 212.302 515.362 214.788L507.077 210.231C508.642 210.047 510.253 209.311 511.91 208.022C513.659 206.733 515.132 205.168 516.328 203.327C516.513 203.051 516.835 203.005 517.295 203.189C517.847 203.373 518.077 203.557 517.985 203.742L509.977 247.236C509.148 251.563 509.655 253.726 511.496 253.726C512.416 253.726 513.521 253.312 514.81 252.483C516.098 251.563 517.479 250.366 518.952 248.893C519.228 248.617 519.55 248.663 519.919 249.031C520.287 249.4 520.333 249.722 520.057 249.998C517.203 253.404 514.487 256.073 511.91 258.006C509.425 259.848 506.985 260.768 504.592 260.768C501.646 260.768 499.621 259.709 498.516 257.592C497.504 255.383 497.366 251.931 498.102 247.236L501.554 227.905L504.454 225.558C502.244 233.106 499.391 239.55 495.893 244.889C492.395 250.228 488.667 254.324 484.708 257.178C480.75 259.94 476.884 261.32 473.11 261.32ZM481.947 251.241C484.156 251.241 486.365 250.366 488.575 248.617C490.784 246.868 492.809 244.613 494.65 241.851C496.583 239.09 498.194 236.19 499.483 233.152C500.864 230.023 501.784 227.169 502.244 224.591C502.981 220.449 502.705 217.181 501.416 214.788C500.127 212.394 498.102 211.198 495.341 211.198C492.763 211.198 490.232 212.256 487.746 214.374C485.261 216.491 483.052 219.39 481.118 223.073C479.185 226.755 477.805 230.989 476.976 235.776C476.056 241.575 476.148 245.625 477.252 247.927C478.357 250.136 479.922 251.241 481.947 251.241Z"/>
</mask>
<path d="M285.005 297.497C284.728 297.589 284.544 297.359 284.452 296.807C284.268 296.254 284.36 295.932 284.728 295.84C286.569 295.38 287.95 294.827 288.871 294.183C289.699 293.631 290.344 292.618 290.804 291.145C291.264 289.765 291.724 287.739 292.185 285.07L306.269 206.227C306.269 205.951 306.821 205.537 307.926 204.984C309.03 204.34 310.319 203.557 311.792 202.637C313.357 201.716 314.738 200.658 315.934 199.461C317.223 198.172 318.051 196.838 318.42 195.457C318.604 195.089 318.926 194.951 319.386 195.043C319.846 195.135 320.031 195.365 319.938 195.733L304.336 284.103C303.691 287.693 303.783 289.949 304.612 290.869C305.532 291.79 307.603 292.066 310.825 291.698C311.194 291.698 311.47 291.928 311.654 292.388C311.838 292.848 311.7 293.124 311.24 293.217L285.005 297.497ZM314.277 259.663C311.976 259.663 309.675 259.525 307.373 259.249C305.164 258.973 303.415 258.697 302.126 258.421L303.507 249.86C305.44 251.333 307.649 252.667 310.135 253.864C312.62 254.969 315.704 255.521 319.386 255.521C322.516 255.521 325.139 254.37 327.257 252.069C329.374 249.676 331.077 246.5 332.366 242.542C333.746 238.583 334.713 234.119 335.265 229.148C335.633 226.202 335.541 223.441 334.989 220.863C334.529 218.286 333.424 216.169 331.675 214.512C330.018 212.855 327.487 212.026 324.081 212.026C320.031 212.026 315.842 213.039 311.516 215.064C307.189 216.997 302.356 219.851 297.017 223.625C296.649 223.993 296.281 223.947 295.913 223.487C295.637 223.027 295.683 222.612 296.051 222.244C301.942 217.365 308.11 213.315 314.553 210.093C321.089 206.871 327.441 205.26 333.608 205.26C339.131 205.26 343.09 206.917 345.483 210.231C347.876 213.545 348.613 218.332 347.692 224.591C347.048 229.286 345.621 233.751 343.412 237.985C341.295 242.219 338.671 245.994 335.541 249.308C332.504 252.529 329.144 255.061 325.462 256.902C321.78 258.743 318.051 259.663 314.277 259.663ZM360.848 261.32C356.981 261.32 354.22 259.848 352.563 256.902C350.998 253.864 350.814 249.261 352.011 243.094L356.843 218.516C357.304 215.846 357.304 214.097 356.843 213.269C356.475 212.441 355.877 212.026 355.048 212.026C354.128 212.026 353.069 212.487 351.872 213.407C350.676 214.328 349.341 215.478 347.868 216.859C347.5 217.227 347.132 217.227 346.764 216.859C346.395 216.491 346.395 216.123 346.764 215.754C349.709 212.256 352.379 209.587 354.772 207.746C357.165 205.905 359.697 204.984 362.366 204.984C365.128 204.984 367.061 206.043 368.166 208.16C369.362 210.277 369.454 213.729 368.442 218.516L364.161 240.47C363.241 244.889 363.149 248.157 363.885 250.274C364.622 252.391 365.956 253.45 367.89 253.45C370.559 253.45 373.275 251.701 376.036 248.203C378.89 244.705 381.559 239.596 384.045 232.876C386.53 226.064 388.601 217.734 390.258 207.884L392.744 208.022C390.995 218.884 388.509 228.32 385.287 236.328C382.066 244.337 378.384 250.504 374.241 254.831C370.099 259.157 365.634 261.32 360.848 261.32ZM389.154 260.768C386.208 260.768 384.275 259.755 383.354 257.73C382.526 255.613 382.434 252.667 383.078 248.893L390.258 207.884C390.719 206.043 393.296 205.122 397.991 205.122C399.832 205.122 401.028 205.26 401.581 205.537C402.225 205.813 402.547 206.043 402.547 206.227C402.547 206.595 402.317 207.792 401.857 209.817C401.397 211.842 400.936 214.051 400.476 216.445L394.815 247.236C393.986 251.747 394.677 254.002 396.886 254.002C397.807 254.002 398.911 253.542 400.2 252.621C401.581 251.701 403.146 250.32 404.895 248.479C405.171 248.111 405.493 248.157 405.861 248.617C406.229 248.985 406.275 249.354 405.999 249.722C402.685 253.68 399.694 256.534 397.024 258.283C394.447 259.94 391.823 260.768 389.154 260.768ZM413.122 260.63C411.373 260.63 410.177 260.492 409.532 260.216C408.888 260.032 408.566 259.802 408.566 259.525C408.566 259.157 408.796 257.96 409.256 255.935C409.808 253.91 410.269 251.701 410.637 249.308L416.298 218.516C417.126 214.005 416.436 211.75 414.227 211.75C413.306 211.75 412.156 212.21 410.775 213.131C409.486 214.051 407.967 215.432 406.218 217.273C405.942 217.641 405.62 217.641 405.252 217.273C404.884 216.813 404.837 216.399 405.114 216.031C408.428 212.072 411.419 209.265 414.089 207.608C416.758 205.859 419.382 204.984 421.959 204.984C424.905 204.984 426.838 206.043 427.759 208.16C428.679 210.185 428.771 213.085 428.035 216.859L420.855 257.868C420.394 259.709 417.817 260.63 413.122 260.63ZM419.06 234.533L419.474 231.219H452.889L452.475 234.533H419.06ZM448.747 260.768C445.801 260.768 443.868 259.755 442.947 257.73C442.119 255.613 442.027 252.667 442.671 248.893L449.851 207.884C450.311 206.043 452.889 205.122 457.584 205.122C459.425 205.122 460.621 205.26 461.174 205.537C461.818 205.813 462.14 206.043 462.14 206.227C462.14 206.595 461.91 207.792 461.45 209.817C460.989 211.842 460.529 214.051 460.069 216.445L454.408 247.236C453.579 251.747 454.27 254.002 456.479 254.002C458.412 254.002 461.036 252.161 464.349 248.479C464.718 248.111 465.086 248.157 465.454 248.617C465.822 248.985 465.868 249.354 465.592 249.722C462.278 253.68 459.287 256.534 456.617 258.283C453.947 259.94 451.324 260.768 448.747 260.768ZM473.11 261.32C469.98 261.32 467.495 260.216 465.654 258.006C463.905 255.705 463.398 252.023 464.135 246.96C464.779 242.266 466.344 237.479 468.829 232.6C471.407 227.629 474.537 223.027 478.219 218.792C481.993 214.466 485.951 211.014 490.094 208.436C494.328 205.767 498.378 204.432 502.244 204.432C504.086 204.432 505.973 204.8 507.906 205.537C509.839 206.181 511.496 207.286 512.877 208.85C514.349 210.323 515.178 212.302 515.362 214.788L507.077 210.231C508.642 210.047 510.253 209.311 511.91 208.022C513.659 206.733 515.132 205.168 516.328 203.327C516.513 203.051 516.835 203.005 517.295 203.189C517.847 203.373 518.077 203.557 517.985 203.742L509.977 247.236C509.148 251.563 509.655 253.726 511.496 253.726C512.416 253.726 513.521 253.312 514.81 252.483C516.098 251.563 517.479 250.366 518.952 248.893C519.228 248.617 519.55 248.663 519.919 249.031C520.287 249.4 520.333 249.722 520.057 249.998C517.203 253.404 514.487 256.073 511.91 258.006C509.425 259.848 506.985 260.768 504.592 260.768C501.646 260.768 499.621 259.709 498.516 257.592C497.504 255.383 497.366 251.931 498.102 247.236L501.554 227.905L504.454 225.558C502.244 233.106 499.391 239.55 495.893 244.889C492.395 250.228 488.667 254.324 484.708 257.178C480.75 259.94 476.884 261.32 473.11 261.32ZM481.947 251.241C484.156 251.241 486.365 250.366 488.575 248.617C490.784 246.868 492.809 244.613 494.65 241.851C496.583 239.09 498.194 236.19 499.483 233.152C500.864 230.023 501.784 227.169 502.244 224.591C502.981 220.449 502.705 217.181 501.416 214.788C500.127 212.394 498.102 211.198 495.341 211.198C492.763 211.198 490.232 212.256 487.746 214.374C485.261 216.491 483.052 219.39 481.118 223.073C479.185 226.755 477.805 230.989 476.976 235.776C476.056 241.575 476.148 245.625 477.252 247.927C478.357 250.136 479.922 251.241 481.947 251.241Z" fill="#671120"/>
<path d="M285.005 297.497L284.847 296.532L284.77 296.545L284.695 296.57L285.005 297.497ZM284.452 296.807L285.417 296.646L285.404 296.57L285.38 296.497L284.452 296.807ZM284.728 295.84L284.966 296.788H284.966L284.728 295.84ZM288.871 294.183L288.329 293.37L288.319 293.376L288.31 293.382L288.871 294.183ZM290.804 291.145L289.876 290.836L289.874 290.845L289.871 290.854L290.804 291.145ZM292.185 285.07L291.222 284.898L291.221 284.904L292.185 285.07ZM306.269 206.227L307.231 206.399L307.246 206.314V206.227H306.269ZM307.926 204.984L308.363 205.859L308.391 205.845L308.418 205.829L307.926 204.984ZM311.792 202.637L311.296 201.794L311.285 201.801L311.274 201.808L311.792 202.637ZM315.934 199.461L315.243 198.77V198.77L315.934 199.461ZM318.42 195.457L317.545 195.02L317.501 195.109L317.475 195.205L318.42 195.457ZM319.386 195.043L319.194 196.001H319.194L319.386 195.043ZM319.938 195.733L318.99 195.496L318.982 195.529L318.976 195.563L319.938 195.733ZM304.336 284.103L305.298 284.276L305.298 284.273L304.336 284.103ZM304.612 290.869L303.885 291.523L303.902 291.542L303.92 291.56L304.612 290.869ZM310.825 291.698V290.72H310.77L310.714 290.726L310.825 291.698ZM311.654 292.388L310.746 292.751V292.751L311.654 292.388ZM311.24 293.217L311.397 294.181L311.414 294.179L311.431 294.175L311.24 293.217ZM307.373 259.249L307.252 260.219L307.257 260.22L307.373 259.249ZM302.126 258.421L301.161 258.265L301.013 259.182L301.922 259.377L302.126 258.421ZM303.507 249.86L304.1 249.082L302.802 248.093L302.542 249.704L303.507 249.86ZM310.135 253.864L309.711 254.745L309.724 254.751L309.738 254.757L310.135 253.864ZM327.257 252.069L327.976 252.731L327.983 252.724L327.989 252.717L327.257 252.069ZM332.366 242.542L331.443 242.22L331.439 242.229L331.436 242.239L332.366 242.542ZM335.265 229.148L334.295 229.027L334.294 229.04L335.265 229.148ZM334.989 220.863L334.027 221.035L334.03 221.052L334.033 221.068L334.989 220.863ZM331.675 214.512L330.984 215.203L330.993 215.212L331.003 215.221L331.675 214.512ZM311.516 215.064L311.914 215.957L311.922 215.953L311.93 215.949L311.516 215.064ZM297.017 223.625L296.453 222.827L296.385 222.875L296.326 222.934L297.017 223.625ZM295.913 223.487L295.075 223.99L295.108 224.046L295.149 224.098L295.913 223.487ZM296.051 222.244L295.427 221.491L295.392 221.52L295.36 221.553L296.051 222.244ZM314.553 210.093L314.121 209.216L314.116 209.219L314.553 210.093ZM345.483 210.231L346.276 209.659V209.659L345.483 210.231ZM347.692 224.591L346.725 224.449L346.724 224.458L347.692 224.591ZM343.412 237.985L342.545 237.533L342.541 237.54L342.537 237.548L343.412 237.985ZM335.541 249.308L334.831 248.636L334.83 248.637L335.541 249.308ZM325.462 256.902L325.899 257.776V257.776L325.462 256.902ZM285.005 297.497L284.695 296.57C284.776 296.543 284.923 296.517 285.096 296.569C285.268 296.621 285.373 296.721 285.423 296.783C285.467 296.838 285.472 296.868 285.46 296.835C285.45 296.806 285.433 296.746 285.417 296.646L284.452 296.807L283.488 296.967C283.541 297.285 283.642 297.687 283.896 298.004C284.038 298.181 284.247 298.356 284.534 298.442C284.822 298.528 285.095 298.497 285.314 298.424L285.005 297.497ZM284.452 296.807L285.38 296.497C285.349 296.406 285.34 296.354 285.338 296.333C285.336 296.312 285.344 296.348 285.323 296.419C285.3 296.5 285.248 296.598 285.158 296.679C285.073 296.756 284.994 296.781 284.966 296.788L284.728 295.84L284.491 294.892C284.022 295.009 283.6 295.335 283.443 295.882C283.316 296.327 283.411 296.775 283.525 297.116L284.452 296.807ZM284.728 295.84L284.966 296.788C286.854 296.316 288.368 295.728 289.431 294.984L288.871 294.183L288.31 293.382C287.532 293.927 286.285 294.443 284.491 294.892L284.728 295.84ZM288.871 294.183L289.413 294.997C290.506 294.268 291.245 293.012 291.737 291.437L290.804 291.145L289.871 290.854C289.443 292.224 288.893 292.994 288.329 293.37L288.871 294.183ZM290.804 291.145L291.731 291.455C292.215 290.003 292.685 287.92 293.148 285.236L292.185 285.07L291.221 284.904C290.764 287.559 290.313 289.526 289.876 290.836L290.804 291.145ZM292.185 285.07L293.147 285.242L307.231 206.399L306.269 206.227L305.306 206.055L291.222 284.898L292.185 285.07ZM306.269 206.227H307.246C307.246 206.357 307.214 206.456 307.188 206.514C307.163 206.571 307.139 206.601 307.136 206.605C307.133 206.608 307.165 206.57 307.269 206.491C307.476 206.337 307.829 206.126 308.363 205.859L307.926 204.984L307.488 204.11C306.918 204.395 306.442 204.668 306.096 204.927C305.925 205.056 305.75 205.207 305.609 205.383C305.479 205.546 305.291 205.837 305.291 206.227H306.269ZM307.926 204.984L308.418 205.829C309.534 205.178 310.831 204.39 312.31 203.466L311.792 202.637L311.274 201.808C309.807 202.725 308.527 203.502 307.433 204.14L307.926 204.984ZM311.792 202.637L312.288 203.48C313.919 202.52 315.366 201.412 316.625 200.152L315.934 199.461L315.243 198.77C314.109 199.904 312.795 200.913 311.296 201.794L311.792 202.637ZM315.934 199.461L316.625 200.152C318.003 198.775 318.941 197.295 319.364 195.709L318.42 195.457L317.475 195.205C317.162 196.38 316.443 197.57 315.243 198.77L315.934 199.461ZM318.42 195.457L319.294 195.894C319.3 195.882 319.296 195.894 319.275 195.915C319.252 195.938 319.221 195.96 319.184 195.976C319.111 196.007 319.094 195.981 319.194 196.001L319.386 195.043L319.578 194.084C319.218 194.012 318.809 194.009 318.414 194.179C318.005 194.354 317.722 194.667 317.545 195.02L318.42 195.457ZM319.386 195.043L319.194 196.001C319.325 196.027 319.221 196.039 319.106 195.895C319.042 195.815 319.003 195.721 318.99 195.631C318.977 195.55 318.989 195.499 318.99 195.496L319.938 195.733L320.887 195.97C320.984 195.583 320.968 195.093 320.633 194.674C320.333 194.299 319.908 194.15 319.578 194.084L319.386 195.043ZM319.938 195.733L318.976 195.563L303.373 283.933L304.336 284.103L305.298 284.273L320.901 195.903L319.938 195.733ZM304.336 284.103L303.373 283.931C303.045 285.759 302.894 287.299 302.945 288.527C302.993 289.717 303.236 290.802 303.885 291.523L304.612 290.869L305.338 290.215C305.159 290.016 304.942 289.513 304.898 288.447C304.856 287.421 304.982 286.038 305.298 284.276L304.336 284.103ZM304.612 290.869L303.92 291.56C304.6 292.24 305.597 292.585 306.726 292.736C307.873 292.889 309.284 292.858 310.936 292.669L310.825 291.698L310.714 290.726C309.145 290.906 307.91 290.921 306.985 290.798C306.043 290.672 305.544 290.419 305.303 290.178L304.612 290.869ZM310.825 291.698V292.675C310.814 292.675 310.788 292.673 310.755 292.661C310.722 292.65 310.697 292.634 310.683 292.621C310.669 292.61 310.672 292.608 310.685 292.628C310.699 292.649 310.721 292.687 310.746 292.751L311.654 292.388L312.561 292.025C312.431 291.698 312.235 291.37 311.934 291.119C311.616 290.854 311.232 290.72 310.825 290.72V291.698ZM311.654 292.388L310.746 292.751C310.796 292.876 310.699 292.732 310.814 292.503C310.938 292.255 311.14 292.24 311.048 292.258L311.24 293.217L311.431 294.175C311.8 294.102 312.3 293.902 312.563 293.378C312.815 292.872 312.696 292.361 312.561 292.025L311.654 292.388ZM311.24 293.217L311.082 292.252L284.847 296.532L285.005 297.497L285.162 298.462L311.397 294.181L311.24 293.217ZM314.277 259.663V258.686C312.015 258.686 309.753 258.55 307.49 258.279L307.373 259.249L307.257 260.22C309.597 260.501 311.937 260.641 314.277 260.641V259.663ZM307.373 259.249L307.495 258.279C305.297 258.004 303.58 257.732 302.331 257.465L302.126 258.421L301.922 259.377C303.25 259.661 305.031 259.942 307.252 260.219L307.373 259.249ZM302.126 258.421L303.091 258.576L304.472 250.016L303.507 249.86L302.542 249.704L301.161 258.265L302.126 258.421ZM303.507 249.86L302.915 250.637C304.907 252.155 307.174 253.523 309.711 254.745L310.135 253.864L310.559 252.983C308.125 251.811 305.974 250.51 304.1 249.082L303.507 249.86ZM310.135 253.864L309.738 254.757C312.384 255.934 315.613 256.499 319.386 256.499V255.521V254.543C315.795 254.543 312.856 254.004 310.532 252.971L310.135 253.864ZM319.386 255.521V256.499C322.789 256.499 325.674 255.234 327.976 252.731L327.257 252.069L326.537 251.407C324.605 253.507 322.243 254.543 319.386 254.543V255.521ZM327.257 252.069L327.989 252.717C330.217 250.198 331.977 246.893 333.295 242.844L332.366 242.542L331.436 242.239C330.177 246.107 328.53 249.154 326.524 251.421L327.257 252.069ZM332.366 242.542L333.289 242.864C334.698 238.824 335.678 234.286 336.237 229.256L335.265 229.148L334.294 229.04C333.748 233.951 332.795 238.342 331.443 242.22L332.366 242.542ZM335.265 229.148L336.235 229.269C336.615 226.228 336.523 223.356 335.945 220.658L334.989 220.863L334.033 221.068C334.56 223.526 334.652 226.176 334.295 229.027L335.265 229.148ZM334.989 220.863L335.951 220.691C335.458 217.927 334.262 215.615 332.348 213.802L331.675 214.512L331.003 215.221C332.587 216.722 333.6 218.644 334.027 221.035L334.989 220.863ZM331.675 214.512L332.366 213.82C330.457 211.911 327.628 211.049 324.081 211.049V212.026V213.004C327.345 213.004 329.579 213.798 330.984 215.203L331.675 214.512ZM324.081 212.026V211.049C319.864 211.049 315.534 212.104 311.101 214.179L311.516 215.064L311.93 215.949C316.15 213.974 320.197 213.004 324.081 213.004V212.026ZM311.516 215.064L311.117 214.171C306.715 216.138 301.826 219.028 296.453 222.827L297.017 223.625L297.582 224.423C302.887 220.673 307.663 217.856 311.914 215.957L311.516 215.064ZM297.017 223.625L296.326 222.934C296.296 222.964 296.302 222.948 296.349 222.928C296.405 222.904 296.489 222.884 296.586 222.896C296.678 222.908 296.732 222.941 296.743 222.949C296.75 222.954 296.726 222.939 296.676 222.876L295.913 223.487L295.149 224.098C295.403 224.414 295.793 224.768 296.344 224.837C296.935 224.91 297.402 224.623 297.709 224.316L297.017 223.625ZM295.913 223.487L296.751 222.984C296.721 222.934 296.713 222.907 296.712 222.901C296.711 222.899 296.712 222.902 296.712 222.909C296.713 222.917 296.713 222.927 296.712 222.939C296.711 222.951 296.708 222.962 296.705 222.971C296.702 222.98 296.7 222.985 296.699 222.986C296.698 222.988 296.707 222.97 296.742 222.935L296.051 222.244L295.36 221.553C295.059 221.854 294.822 222.245 294.769 222.723C294.716 223.197 294.858 223.629 295.075 223.99L295.913 223.487ZM296.051 222.244L296.674 222.997C302.512 218.163 308.617 214.154 314.991 210.968L314.553 210.093L314.116 209.219C307.602 212.476 301.372 216.568 295.427 221.491L296.051 222.244ZM314.553 210.093L314.986 210.97C321.411 207.803 327.616 206.238 333.608 206.238V205.26V204.283C327.266 204.283 320.767 205.94 314.121 209.216L314.553 210.093ZM333.608 205.26V206.238C338.937 206.238 342.541 207.828 344.691 210.804L345.483 210.231L346.276 209.659C343.638 206.007 339.326 204.283 333.608 204.283V205.26ZM345.483 210.231L344.691 210.804C346.871 213.823 347.628 218.307 346.725 224.449L347.692 224.591L348.66 224.734C349.597 218.356 348.882 213.268 346.276 209.659L345.483 210.231ZM347.692 224.591L346.724 224.458C346.095 229.041 344.703 233.397 342.545 237.533L343.412 237.985L344.279 238.437C346.539 234.104 348.001 229.531 348.661 224.724L347.692 224.591ZM343.412 237.985L342.537 237.548C340.461 241.7 337.892 245.395 334.831 248.636L335.541 249.308L336.252 249.979C339.45 246.593 342.128 242.739 344.286 238.422L343.412 237.985ZM335.541 249.308L334.83 248.637C331.865 251.782 328.596 254.241 325.024 256.027L325.462 256.902L325.899 257.776C329.691 255.88 333.142 253.277 336.253 249.978L335.541 249.308ZM325.462 256.902L325.024 256.027C321.466 257.807 317.886 258.686 314.277 258.686V259.663V260.641C318.217 260.641 322.094 259.679 325.899 257.776L325.462 256.902ZM352.563 256.902L351.694 257.35L351.702 257.365L351.711 257.381L352.563 256.902ZM352.011 243.094L351.051 242.905L351.051 242.908L352.011 243.094ZM356.843 218.516L357.802 218.705L357.805 218.693L357.807 218.682L356.843 218.516ZM356.843 213.269L355.95 213.666L355.968 213.706L355.989 213.744L356.843 213.269ZM351.872 213.407L351.276 212.632V212.632L351.872 213.407ZM347.868 216.859L347.2 216.146L347.188 216.157L347.177 216.168L347.868 216.859ZM346.764 216.859L346.072 217.55V217.55L346.764 216.859ZM346.764 215.754L347.455 216.446L347.484 216.416L347.511 216.384L346.764 215.754ZM354.772 207.746L354.176 206.971V206.971L354.772 207.746ZM368.166 208.16L367.299 208.612L367.307 208.627L367.315 208.641L368.166 208.16ZM368.442 218.516L367.485 218.314L367.484 218.321L367.482 218.329L368.442 218.516ZM364.161 240.47L365.119 240.67L365.121 240.658L364.161 240.47ZM363.885 250.274L362.962 250.595V250.595L363.885 250.274ZM376.036 248.203L375.279 247.585L375.274 247.591L375.269 247.597L376.036 248.203ZM384.045 232.876L384.962 233.215L384.963 233.211L384.045 232.876ZM390.258 207.884L390.313 206.908L389.439 206.859L389.294 207.722L390.258 207.884ZM392.744 208.022L393.709 208.177L393.881 207.106L392.798 207.046L392.744 208.022ZM385.287 236.328L384.381 235.963L385.287 236.328ZM374.241 254.831L373.535 254.155V254.155L374.241 254.831ZM383.354 257.73L382.444 258.087L382.454 258.111L382.464 258.135L383.354 257.73ZM383.078 248.893L382.115 248.725L382.115 248.729L383.078 248.893ZM390.258 207.884L389.31 207.647L389.301 207.681L389.295 207.715L390.258 207.884ZM401.581 205.537L401.144 206.411L401.169 206.424L401.196 206.435L401.581 205.537ZM401.857 209.817L402.81 210.034V210.034L401.857 209.817ZM400.476 216.445L399.516 216.26L399.515 216.268L400.476 216.445ZM394.815 247.236L393.853 247.06L393.853 247.06L394.815 247.236ZM400.2 252.621L399.658 251.808L399.645 251.817L399.632 251.826L400.2 252.621ZM404.895 248.479L405.603 249.152L405.643 249.111L405.677 249.066L404.895 248.479ZM405.861 248.617L405.098 249.228L405.132 249.27L405.17 249.308L405.861 248.617ZM405.999 249.722L406.749 250.349L406.766 250.329L406.781 250.308L405.999 249.722ZM397.024 258.283L397.553 259.105L397.56 259.1L397.024 258.283ZM360.848 261.32V260.343C357.273 260.343 354.871 259.011 353.415 256.423L352.563 256.902L351.711 257.381C353.569 260.685 356.689 262.298 360.848 262.298V261.32ZM352.563 256.902L353.432 256.454C352.022 253.718 351.785 249.391 352.97 243.28L352.011 243.094L351.051 242.908C349.843 249.132 349.973 254.01 351.694 257.35L352.563 256.902ZM352.011 243.094L352.97 243.283L357.802 218.705L356.843 218.516L355.884 218.327L351.051 242.905L352.011 243.094ZM356.843 218.516L357.807 218.682C358.042 217.319 358.166 216.154 358.166 215.202C358.166 214.28 358.051 213.431 357.698 212.794L356.843 213.269L355.989 213.744C356.095 213.936 356.211 214.375 356.211 215.202C356.211 215.999 356.105 217.044 355.88 218.35L356.843 218.516ZM356.843 213.269L357.737 212.872C357.497 212.334 357.154 211.865 356.675 211.533C356.19 211.198 355.633 211.049 355.048 211.049V212.026V213.004C355.292 213.004 355.448 213.062 355.562 213.141C355.681 213.223 355.821 213.376 355.95 213.666L356.843 213.269ZM355.048 212.026V211.049C353.813 211.049 352.543 211.658 351.276 212.632L351.872 213.407L352.468 214.182C353.595 213.316 354.443 213.004 355.048 213.004V212.026ZM351.872 213.407L351.276 212.632C350.048 213.577 348.688 214.75 347.2 216.146L347.868 216.859L348.537 217.572C349.994 216.206 351.304 215.078 352.468 214.182L351.872 213.407ZM347.868 216.859L347.177 216.168C347.099 216.245 347.149 216.158 347.316 216.158C347.482 216.158 347.532 216.245 347.455 216.168L346.764 216.859L346.072 217.55C346.363 217.841 346.781 218.113 347.316 218.113C347.851 218.113 348.269 217.841 348.559 217.55L347.868 216.859ZM346.764 216.859L347.455 216.168C347.377 216.09 347.465 216.14 347.465 216.307C347.465 216.473 347.377 216.523 347.455 216.446L346.764 215.754L346.072 215.063C345.782 215.354 345.51 215.772 345.51 216.307C345.51 216.842 345.782 217.26 346.072 217.55L346.764 216.859ZM346.764 215.754L347.511 216.384C350.432 212.915 353.051 210.303 355.368 208.521L354.772 207.746L354.176 206.971C351.706 208.871 348.986 211.597 346.016 215.125L346.764 215.754ZM354.772 207.746L355.368 208.521C357.614 206.793 359.94 205.962 362.366 205.962V204.984V204.007C359.453 204.007 356.717 205.017 354.176 206.971L354.772 207.746ZM362.366 204.984V205.962C363.624 205.962 364.627 206.203 365.418 206.636C366.201 207.064 366.828 207.71 367.299 208.612L368.166 208.16L369.032 207.708C368.399 206.493 367.507 205.551 366.357 204.921C365.214 204.295 363.871 204.007 362.366 204.007V204.984ZM368.166 208.16L367.315 208.641C368.322 210.424 368.491 213.559 367.485 218.314L368.442 218.516L369.398 218.718C370.418 213.899 370.403 210.131 369.017 207.679L368.166 208.16ZM368.442 218.516L367.482 218.329L363.202 240.283L364.161 240.47L365.121 240.658L369.401 218.703L368.442 218.516ZM364.161 240.47L363.204 240.271C362.278 244.72 362.133 248.212 362.962 250.595L363.885 250.274L364.809 249.953C364.165 248.102 364.204 245.058 365.118 240.67L364.161 240.47ZM363.885 250.274L362.962 250.595C363.372 251.775 363.979 252.746 364.831 253.422C365.694 254.106 366.734 254.427 367.89 254.427V253.45V252.472C367.112 252.472 366.518 252.264 366.046 251.89C365.563 251.507 365.135 250.891 364.809 249.953L363.885 250.274ZM367.89 253.45V254.427C371.011 254.427 373.978 252.387 376.804 248.809L376.036 248.203L375.269 247.597C372.571 251.015 370.107 252.472 367.89 252.472V253.45ZM376.036 248.203L376.794 248.821C379.743 245.205 382.458 239.984 384.962 233.215L384.045 232.876L383.128 232.537C380.661 239.208 378.036 244.205 375.279 247.585L376.036 248.203ZM384.045 232.876L384.963 233.211C387.475 226.327 389.559 217.934 391.222 208.046L390.258 207.884L389.294 207.722C387.644 217.533 385.585 225.802 383.126 232.541L384.045 232.876ZM390.258 207.884L390.204 208.86L392.69 208.998L392.744 208.022L392.798 207.046L390.313 206.908L390.258 207.884ZM392.744 208.022L391.779 207.867C390.038 218.676 387.569 228.038 384.381 235.963L385.287 236.328L386.194 236.693C389.45 228.602 391.951 219.093 393.709 208.177L392.744 208.022ZM385.287 236.328L384.381 235.963C381.186 243.903 377.562 249.949 373.535 254.155L374.241 254.831L374.947 255.507C379.205 251.06 382.945 244.77 386.194 236.693L385.287 236.328ZM374.241 254.831L373.535 254.155C369.528 258.34 365.304 260.343 360.848 260.343V261.32V262.298C365.965 262.298 370.67 259.974 374.947 255.507L374.241 254.831ZM389.154 260.768V259.79C386.443 259.79 384.953 258.884 384.244 257.326L383.354 257.73L382.464 258.135C383.597 260.626 385.973 261.746 389.154 261.746V260.768ZM383.354 257.73L384.265 257.374C383.531 255.5 383.409 252.763 384.042 249.058L383.078 248.893L382.115 248.729C381.458 252.572 381.52 255.726 382.444 258.087L383.354 257.73ZM383.078 248.893L384.041 249.062L391.221 208.053L390.258 207.884L389.295 207.715L382.115 248.725L383.078 248.893ZM390.258 207.884L391.207 208.121C391.326 207.643 391.738 207.136 392.865 206.733C393.999 206.328 395.687 206.1 397.991 206.1V205.122V204.145C395.6 204.145 393.651 204.377 392.208 204.892C390.758 205.41 389.651 206.283 389.31 207.647L390.258 207.884ZM397.991 205.122V206.1C398.891 206.1 399.61 206.134 400.157 206.197C400.729 206.263 401.026 206.352 401.144 206.411L401.581 205.537L402.018 204.662C401.584 204.445 401.006 204.327 400.381 204.255C399.732 204.18 398.931 204.145 397.991 204.145V205.122ZM401.581 205.537L401.196 206.435C401.495 206.563 401.661 206.657 401.737 206.712C401.776 206.739 401.754 206.731 401.715 206.68C401.677 206.632 401.57 206.474 401.57 206.227H402.547H403.525C403.525 205.888 403.377 205.632 403.259 205.48C403.139 205.326 402.996 205.208 402.874 205.121C402.628 204.945 402.311 204.786 401.966 204.638L401.581 205.537ZM402.547 206.227H401.57C401.57 206.226 401.57 206.231 401.569 206.246C401.568 206.261 401.566 206.281 401.564 206.307C401.559 206.359 401.55 206.428 401.537 206.516C401.511 206.692 401.471 206.924 401.415 207.216C401.303 207.799 401.133 208.592 400.904 209.6L401.857 209.817L402.81 210.034C403.041 209.017 403.217 208.199 403.335 207.585C403.446 207.009 403.525 206.522 403.525 206.227H402.547ZM401.857 209.817L400.904 209.6C400.441 211.638 399.978 213.858 399.516 216.26L400.476 216.445L401.436 216.629C401.895 214.245 402.353 212.047 402.81 210.034L401.857 209.817ZM400.476 216.445L399.515 216.268L393.853 247.06L394.815 247.236L395.776 247.413L401.438 216.622L400.476 216.445ZM394.815 247.236L393.853 247.06C393.433 249.35 393.36 251.235 393.777 252.597C393.991 253.299 394.353 253.915 394.914 254.351C395.481 254.792 396.162 254.98 396.886 254.98V254.002V253.025C396.506 253.025 396.272 252.931 396.114 252.808C395.95 252.68 395.777 252.451 395.646 252.025C395.373 251.131 395.369 249.634 395.776 247.413L394.815 247.236ZM396.886 254.002V254.98C398.111 254.98 399.42 254.38 400.768 253.417L400.2 252.621L399.632 251.826C398.402 252.704 397.502 253.025 396.886 253.025V254.002ZM400.2 252.621L400.742 253.435C402.206 252.459 403.828 251.022 405.603 249.152L404.895 248.479L404.186 247.806C402.464 249.619 400.955 250.943 399.658 251.808L400.2 252.621ZM404.895 248.479L405.677 249.066C405.689 249.049 405.66 249.095 405.574 249.141C405.473 249.195 405.341 249.225 405.205 249.205C405.084 249.188 405.019 249.141 405.016 249.138C405.012 249.135 405.041 249.157 405.098 249.228L405.861 248.617L406.625 248.006C406.399 247.724 406.024 247.347 405.482 247.27C404.829 247.176 404.365 247.556 404.113 247.892L404.895 248.479ZM405.861 248.617L405.17 249.308C405.261 249.399 405.215 249.394 405.202 249.291C405.195 249.239 405.202 249.19 405.213 249.154C405.223 249.122 405.232 249.115 405.217 249.135L405.999 249.722L406.781 250.308C407.033 249.973 407.204 249.541 407.142 249.048C407.083 248.576 406.83 248.203 406.552 247.926L405.861 248.617ZM405.999 249.722L405.25 249.094C401.964 253.018 399.044 255.791 396.488 257.465L397.024 258.283L397.56 259.1C400.344 257.277 403.406 254.342 406.749 250.349L405.999 249.722ZM397.024 258.283L396.496 257.46C394.052 259.031 391.609 259.79 389.154 259.79V260.768V261.746C392.037 261.746 394.842 260.848 397.553 259.105L397.024 258.283ZM409.532 260.216L409.917 259.317L409.86 259.293L409.801 259.276L409.532 260.216ZM409.256 255.935L408.313 255.678L408.307 255.698L408.303 255.719L409.256 255.935ZM410.637 249.308L409.675 249.131L409.673 249.145L409.671 249.159L410.637 249.308ZM416.298 218.516L417.259 218.693L417.26 218.693L416.298 218.516ZM410.775 213.131L410.233 212.317L410.219 212.326L410.207 212.335L410.775 213.131ZM406.218 217.273L405.51 216.6L405.47 216.641L405.436 216.687L406.218 217.273ZM405.252 217.273L404.488 217.884L404.522 217.926L404.56 217.965L405.252 217.273ZM405.114 216.031L404.364 215.403L404.347 215.423L404.332 215.444L405.114 216.031ZM414.089 207.608L414.604 208.438L414.614 208.432L414.625 208.425L414.089 207.608ZM427.759 208.16L426.862 208.55L426.865 208.557L426.869 208.565L427.759 208.16ZM428.035 216.859L427.075 216.672L427.073 216.681L427.072 216.69L428.035 216.859ZM420.855 257.868L421.803 258.105L421.812 258.072L421.818 258.037L420.855 257.868ZM419.06 234.533L418.09 234.412L417.952 235.511H419.06V234.533ZM419.474 231.219V230.242H418.611L418.504 231.098L419.474 231.219ZM452.889 231.219L453.859 231.34L453.996 230.242H452.889V231.219ZM452.475 234.533V235.511H453.338L453.445 234.654L452.475 234.533ZM442.947 257.73L442.037 258.087L442.046 258.111L442.057 258.135L442.947 257.73ZM442.671 248.893L441.708 248.725L441.707 248.729L442.671 248.893ZM449.851 207.884L448.903 207.647L448.894 207.681L448.888 207.715L449.851 207.884ZM461.174 205.537L460.736 206.411L460.762 206.424L460.789 206.435L461.174 205.537ZM461.45 209.817L460.496 209.6V209.6L461.45 209.817ZM460.069 216.445L459.109 216.26L459.107 216.268L460.069 216.445ZM454.408 247.236L453.446 247.06L453.446 247.06L454.408 247.236ZM464.349 248.479L463.658 247.788L463.64 247.806L463.623 247.825L464.349 248.479ZM465.454 248.617L464.691 249.228L464.724 249.27L464.763 249.308L465.454 248.617ZM465.592 249.722L466.342 250.349L466.358 250.329L466.374 250.308L465.592 249.722ZM456.617 258.283L457.133 259.113L457.143 259.107L457.153 259.1L456.617 258.283ZM413.122 260.63V259.652C411.364 259.652 410.356 259.505 409.917 259.317L409.532 260.216L409.147 261.114C409.997 261.479 411.382 261.608 413.122 261.608V260.63ZM409.532 260.216L409.801 259.276C409.669 259.238 409.569 259.202 409.494 259.17C409.418 259.138 409.384 259.115 409.375 259.11C409.366 259.103 409.406 259.129 409.451 259.199C409.501 259.278 409.543 259.392 409.543 259.525H408.566H407.588C407.588 260.101 407.94 260.487 408.239 260.701C408.533 260.91 408.898 261.051 409.264 261.156L409.532 260.216ZM408.566 259.525H409.543C409.543 259.527 409.543 259.521 409.544 259.506C409.545 259.492 409.547 259.472 409.549 259.446C409.554 259.393 409.563 259.324 409.576 259.236C409.602 259.06 409.642 258.828 409.698 258.536C409.81 257.954 409.98 257.16 410.209 256.152L409.256 255.935L408.303 255.719C408.072 256.736 407.896 257.553 407.778 258.167C407.667 258.743 407.588 259.23 407.588 259.525H408.566ZM409.256 255.935L410.199 256.193C410.763 254.127 411.23 251.881 411.603 249.456L410.637 249.308L409.671 249.159C409.307 251.521 408.854 253.694 408.313 255.678L409.256 255.935ZM410.637 249.308L411.598 249.484L417.259 218.693L416.298 218.516L415.337 218.339L409.675 249.131L410.637 249.308ZM416.298 218.516L417.26 218.693C417.68 216.403 417.753 214.517 417.336 213.155C417.122 212.454 416.76 211.838 416.199 211.401C415.632 210.96 414.951 210.773 414.227 210.773V211.75V212.728C414.607 212.728 414.841 212.822 414.999 212.945C415.163 213.072 415.336 213.302 415.467 213.728C415.74 214.621 415.744 216.119 415.337 218.339L416.298 218.516ZM414.227 211.75V210.773C413.012 210.773 411.662 211.365 410.233 212.317L410.775 213.131L411.317 213.944C412.649 213.056 413.6 212.728 414.227 212.728V211.75ZM410.775 213.131L410.207 212.335C408.846 213.307 407.279 214.737 405.51 216.6L406.218 217.273L406.927 217.947C408.655 216.127 410.126 214.796 411.343 213.926L410.775 213.131ZM406.218 217.273L405.436 216.687C405.419 216.709 405.434 216.683 405.49 216.648C405.555 216.608 405.653 216.572 405.77 216.572C405.88 216.572 405.954 216.604 405.979 216.618C406.001 216.629 405.988 216.627 405.943 216.582L405.252 217.273L404.56 217.965C404.82 218.224 405.228 218.527 405.77 218.527C406.355 218.527 406.761 218.179 407 217.86L406.218 217.273ZM405.252 217.273L406.015 216.663C405.961 216.594 405.933 216.546 405.919 216.518C405.907 216.491 405.91 216.49 405.913 216.509C405.915 216.532 405.913 216.562 405.905 216.591C405.897 216.619 405.888 216.628 405.896 216.617L405.114 216.031L404.332 215.444C404.061 215.805 403.916 216.244 403.969 216.725C404.02 217.178 404.234 217.566 404.488 217.884L405.252 217.273ZM405.114 216.031L405.863 216.658C409.147 212.735 412.062 210.017 414.604 208.438L414.089 207.608L413.573 206.777C410.777 208.513 407.708 211.409 404.364 215.403L405.114 216.031ZM414.089 207.608L414.625 208.425C417.173 206.756 419.613 205.962 421.959 205.962V204.984V204.007C419.151 204.007 416.344 204.962 413.553 206.79L414.089 207.608ZM421.959 204.984V205.962C423.321 205.962 424.367 206.207 425.149 206.636C425.916 207.056 426.484 207.68 426.862 208.55L427.759 208.16L428.655 207.77C428.113 206.523 427.254 205.559 426.088 204.921C424.937 204.291 423.543 204.007 421.959 204.007V204.984ZM427.759 208.16L426.869 208.565C427.663 210.313 427.798 212.968 427.075 216.672L428.035 216.859L428.994 217.046C429.744 213.202 429.695 210.058 428.649 207.756L427.759 208.16ZM428.035 216.859L427.072 216.69L419.892 257.7L420.855 257.868L421.818 258.037L428.998 217.028L428.035 216.859ZM420.855 257.868L419.906 257.631C419.787 258.109 419.375 258.616 418.248 259.019C417.114 259.424 415.426 259.652 413.122 259.652V260.63V261.608C415.513 261.608 417.462 261.376 418.905 260.86C420.355 260.342 421.462 259.469 421.803 258.105L420.855 257.868ZM419.06 234.533L420.03 234.654L420.444 231.34L419.474 231.219L418.504 231.098L418.09 234.412L419.06 234.533ZM419.474 231.219V232.197H452.889V231.219V230.242H419.474V231.219ZM452.889 231.219L451.919 231.098L451.505 234.412L452.475 234.533L453.445 234.654L453.859 231.34L452.889 231.219ZM452.475 234.533V233.556H419.06V234.533V235.511H452.475V234.533ZM448.747 260.768V259.79C446.036 259.79 444.546 258.884 443.837 257.326L442.947 257.73L442.057 258.135C443.19 260.626 445.566 261.746 448.747 261.746V260.768ZM442.947 257.73L443.858 257.374C443.124 255.5 443.002 252.763 443.635 249.058L442.671 248.893L441.707 248.729C441.051 252.572 441.113 255.726 442.037 258.087L442.947 257.73ZM442.671 248.893L443.634 249.062L450.814 208.053L449.851 207.884L448.888 207.715L441.708 248.725L442.671 248.893ZM449.851 207.884L450.8 208.121C450.919 207.643 451.331 207.136 452.458 206.733C453.592 206.328 455.28 206.1 457.584 206.1V205.122V204.145C455.192 204.145 453.244 204.377 451.801 204.892C450.351 205.41 449.244 206.283 448.903 207.647L449.851 207.884ZM457.584 205.122V206.1C458.484 206.1 459.203 206.134 459.75 206.197C460.321 206.263 460.618 206.352 460.736 206.411L461.174 205.537L461.611 204.662C461.176 204.445 460.599 204.327 459.974 204.255C459.324 204.18 458.524 204.145 457.584 204.145V205.122ZM461.174 205.537L460.789 206.435C461.087 206.563 461.254 206.657 461.33 206.712C461.369 206.739 461.347 206.731 461.308 206.68C461.27 206.632 461.163 206.474 461.163 206.227H462.14H463.118C463.118 205.888 462.97 205.632 462.851 205.48C462.732 205.326 462.589 205.208 462.467 205.121C462.221 204.945 461.904 204.786 461.559 204.638L461.174 205.537ZM462.14 206.227H461.163C461.163 206.226 461.163 206.231 461.162 206.246C461.161 206.261 461.159 206.281 461.157 206.307C461.151 206.359 461.143 206.428 461.13 206.516C461.104 206.692 461.064 206.924 461.008 207.216C460.895 207.799 460.726 208.592 460.496 209.6L461.45 209.817L462.403 210.034C462.634 209.017 462.809 208.199 462.928 207.585C463.038 207.009 463.118 206.522 463.118 206.227H462.14ZM461.45 209.817L460.496 209.6C460.033 211.638 459.571 213.858 459.109 216.26L460.069 216.445L461.029 216.629C461.488 214.245 461.946 212.047 462.403 210.034L461.45 209.817ZM460.069 216.445L459.107 216.268L453.446 247.06L454.408 247.236L455.369 247.413L461.03 216.622L460.069 216.445ZM454.408 247.236L453.446 247.06C453.026 249.35 452.953 251.235 453.369 252.597C453.584 253.299 453.945 253.915 454.507 254.351C455.073 254.792 455.755 254.98 456.479 254.98V254.002V253.025C456.098 253.025 455.865 252.931 455.707 252.808C455.543 252.68 455.369 252.451 455.239 252.025C454.965 251.131 454.961 249.634 455.369 247.413L454.408 247.236ZM456.479 254.002V254.98C457.74 254.98 459.08 254.389 460.458 253.422C461.853 252.442 463.393 251.003 465.076 249.133L464.349 248.479L463.623 247.825C461.992 249.638 460.563 250.959 459.335 251.821C458.09 252.695 457.151 253.025 456.479 253.025V254.002ZM464.349 248.479L465.041 249.17C465.071 249.14 465.065 249.156 465.017 249.176C464.962 249.2 464.877 249.22 464.78 249.207C464.689 249.196 464.635 249.163 464.624 249.155C464.616 249.15 464.641 249.165 464.691 249.228L465.454 248.617L466.217 248.006C465.964 247.69 465.574 247.336 465.023 247.267C464.432 247.193 463.965 247.481 463.658 247.788L464.349 248.479ZM465.454 248.617L464.763 249.308C464.854 249.399 464.808 249.394 464.795 249.291C464.788 249.239 464.795 249.19 464.806 249.154C464.816 249.122 464.825 249.115 464.81 249.135L465.592 249.722L466.374 250.308C466.626 249.973 466.796 249.541 466.735 249.048C466.676 248.576 466.422 248.203 466.145 247.926L465.454 248.617ZM465.592 249.722L464.843 249.094C461.557 253.018 458.637 255.791 456.081 257.465L456.617 258.283L457.153 259.1C459.936 257.277 462.999 254.342 466.342 250.349L465.592 249.722ZM456.617 258.283L456.101 257.452C453.553 259.034 451.106 259.79 448.747 259.79V260.768V261.746C451.542 261.746 454.342 260.845 457.133 259.113L456.617 258.283ZM465.654 258.006L464.875 258.598L464.889 258.615L464.903 258.632L465.654 258.006ZM464.135 246.96L465.102 247.101L465.103 247.093L464.135 246.96ZM468.829 232.6L467.962 232.15L467.958 232.156L468.829 232.6ZM478.219 218.792L477.482 218.149L477.481 218.151L478.219 218.792ZM490.094 208.436L490.61 209.266L490.615 209.263L490.094 208.436ZM507.906 205.537L507.558 206.45L507.577 206.457L507.597 206.464L507.906 205.537ZM512.877 208.85L512.143 209.497L512.164 209.52L512.185 209.542L512.877 208.85ZM515.362 214.788L514.891 215.644L516.47 216.513L516.337 214.716L515.362 214.788ZM507.077 210.231L506.963 209.26L503.932 209.617L506.606 211.088L507.077 210.231ZM511.91 208.022L511.33 207.235L511.32 207.243L511.31 207.25L511.91 208.022ZM516.328 203.327L515.515 202.785L515.509 202.795L516.328 203.327ZM517.295 203.189L516.932 204.097L516.959 204.108L516.986 204.117L517.295 203.189ZM517.985 203.742L517.111 203.304L517.049 203.428L517.024 203.565L517.985 203.742ZM509.977 247.236L510.937 247.42L510.938 247.413L509.977 247.236ZM514.81 252.483L515.338 253.306L515.358 253.293L515.378 253.279L514.81 252.483ZM518.952 248.893L519.643 249.585V249.585L518.952 248.893ZM520.057 249.998L519.365 249.307L519.335 249.337L519.307 249.37L520.057 249.998ZM511.91 258.006L512.492 258.792L512.497 258.789L511.91 258.006ZM498.516 257.592L497.628 258L497.638 258.022L497.65 258.044L498.516 257.592ZM498.102 247.236L497.14 247.064L497.138 247.075L497.136 247.085L498.102 247.236ZM501.554 227.905L500.939 227.145L500.656 227.375L500.592 227.733L501.554 227.905ZM504.454 225.558L505.392 225.833L506.271 222.829L503.839 224.798L504.454 225.558ZM495.893 244.889L495.075 244.353V244.353L495.893 244.889ZM484.708 257.178L485.268 257.98L485.274 257.975L485.28 257.971L484.708 257.178ZM494.65 241.851L493.849 241.291L493.843 241.3L493.837 241.309L494.65 241.851ZM499.483 233.152L498.588 232.758L498.583 232.771L499.483 233.152ZM502.244 224.591L503.207 224.763L503.207 224.763L502.244 224.591ZM501.416 214.788L500.555 215.251V215.251L501.416 214.788ZM487.746 214.374L488.38 215.118H488.38L487.746 214.374ZM481.118 223.073L481.984 223.527V223.527L481.118 223.073ZM476.976 235.776L476.013 235.609L476.011 235.623L476.976 235.776ZM477.252 247.927L476.371 248.35L476.374 248.357L476.378 248.364L477.252 247.927ZM473.11 261.32V260.343C470.241 260.343 468.042 259.346 466.405 257.381L465.654 258.006L464.903 258.632C466.947 261.086 469.719 262.298 473.11 262.298V261.32ZM465.654 258.006L466.432 257.415C464.927 255.435 464.377 252.089 465.102 247.101L464.135 246.96L463.167 246.819C462.42 251.957 462.882 255.976 464.875 258.598L465.654 258.006ZM464.135 246.96L465.103 247.093C465.731 242.522 467.257 237.84 469.7 233.044L468.829 232.6L467.958 232.156C465.431 237.118 463.828 242.009 463.166 246.827L464.135 246.96ZM468.829 232.6L469.697 233.05C472.239 228.148 475.325 223.61 478.956 219.434L478.219 218.792L477.481 218.151C473.748 222.443 470.575 227.11 467.962 232.15L468.829 232.6ZM478.219 218.792L478.955 219.435C482.677 215.169 486.563 211.784 490.61 209.266L490.094 208.436L489.577 207.606C485.339 210.243 481.309 213.763 477.482 218.149L478.219 218.792ZM490.094 208.436L490.615 209.263C494.739 206.664 498.61 205.41 502.244 205.41V204.432V203.454C498.147 203.454 493.917 204.87 489.572 207.609L490.094 208.436ZM502.244 204.432V205.41C503.953 205.41 505.722 205.751 507.558 206.45L507.906 205.537L508.254 204.623C506.223 203.849 504.218 203.454 502.244 203.454V204.432ZM507.906 205.537L507.597 206.464C509.362 207.052 510.874 208.058 512.143 209.497L512.877 208.85L513.61 208.204C512.118 206.513 510.316 205.309 508.215 204.609L507.906 205.537ZM512.877 208.85L512.185 209.542C513.461 210.818 514.217 212.56 514.387 214.86L515.362 214.788L516.337 214.716C516.139 212.045 515.238 209.829 513.568 208.159L512.877 208.85ZM515.362 214.788L515.833 213.931L507.548 209.375L507.077 210.231L506.606 211.088L514.891 215.644L515.362 214.788ZM507.077 210.231L507.191 211.202C508.983 210.991 510.758 210.157 512.51 208.794L511.91 208.022L511.31 207.25C509.748 208.465 508.301 209.103 506.963 209.26L507.077 210.231ZM511.91 208.022L512.49 208.809C514.334 207.45 515.888 205.799 517.148 203.86L516.328 203.327L515.509 202.795C514.375 204.538 512.983 206.017 511.33 207.235L511.91 208.022ZM516.328 203.327L517.142 203.87C517.121 203.902 517.08 203.948 517.017 203.988C516.954 204.029 516.892 204.047 516.846 204.053C516.805 204.059 516.788 204.054 516.806 204.057C516.824 204.06 516.865 204.07 516.932 204.097L517.295 203.189L517.658 202.282C517.346 202.157 516.967 202.061 516.57 202.118C516.127 202.181 515.758 202.421 515.515 202.785L516.328 203.327ZM517.295 203.189L516.986 204.117C517.099 204.154 517.179 204.187 517.233 204.212C517.29 204.239 517.294 204.247 517.271 204.229C517.255 204.216 517.147 204.128 517.079 203.947C517.042 203.849 517.021 203.735 517.029 203.612C517.037 203.489 517.071 203.385 517.111 203.304L517.985 203.742L518.86 204.179C518.998 203.902 519.027 203.574 518.909 203.26C518.807 202.987 518.624 202.807 518.493 202.702C518.237 202.498 517.904 202.362 517.604 202.262L517.295 203.189ZM517.985 203.742L517.024 203.565L509.015 247.059L509.977 247.236L510.938 247.413L518.947 203.919L517.985 203.742ZM509.977 247.236L509.017 247.052C508.597 249.244 508.481 251.036 508.783 252.326C508.938 252.986 509.219 253.594 509.703 254.039C510.204 254.502 510.83 254.704 511.496 254.704V253.726V252.748C511.241 252.748 511.113 252.68 511.028 252.602C510.925 252.506 510.786 252.303 510.687 251.881C510.483 251.008 510.528 249.555 510.937 247.42L509.977 247.236ZM511.496 253.726V254.704C512.691 254.704 513.986 254.175 515.338 253.306L514.81 252.483L514.281 251.661C513.056 252.448 512.142 252.748 511.496 252.748V253.726ZM514.81 252.483L515.378 253.279C516.722 252.319 518.143 251.084 519.643 249.585L518.952 248.893L518.261 248.202C516.815 249.648 515.475 250.807 514.241 251.688L514.81 252.483ZM518.952 248.893L519.643 249.585C519.636 249.592 519.596 249.629 519.519 249.659C519.435 249.691 519.344 249.7 519.262 249.688C519.225 249.683 519.196 249.674 519.177 249.667C519.158 249.66 519.148 249.654 519.148 249.654C519.148 249.654 519.155 249.658 519.169 249.669C519.183 249.681 519.203 249.698 519.227 249.723L519.919 249.031L520.61 248.34C520.359 248.09 520.002 247.819 519.539 247.753C519.011 247.677 518.567 247.895 518.261 248.202L518.952 248.893ZM519.919 249.031L519.227 249.723C519.252 249.747 519.269 249.767 519.281 249.781C519.292 249.795 519.296 249.802 519.296 249.802C519.296 249.801 519.29 249.792 519.283 249.773C519.276 249.754 519.267 249.725 519.261 249.687C519.25 249.605 519.259 249.515 519.291 249.431C519.321 249.354 519.358 249.314 519.365 249.307L520.057 249.998L520.748 250.689C521.055 250.382 521.272 249.939 521.197 249.411C521.131 248.948 520.86 248.591 520.61 248.34L519.919 249.031ZM520.057 249.998L519.307 249.37C516.485 252.739 513.823 255.35 511.323 257.224L511.91 258.006L512.497 258.789C515.152 256.797 517.921 254.069 520.806 250.626L520.057 249.998ZM511.91 258.006L511.328 257.221C508.962 258.974 506.722 259.79 504.592 259.79V260.768V261.746C507.249 261.746 509.887 260.721 512.492 258.792L511.91 258.006ZM504.592 260.768V259.79C501.909 259.79 500.277 258.853 499.383 257.14L498.516 257.592L497.65 258.044C498.965 260.566 501.383 261.746 504.592 261.746V260.768ZM498.516 257.592L499.405 257.185C498.519 255.251 498.337 252.044 499.068 247.388L498.102 247.236L497.136 247.085C496.394 251.818 496.489 255.515 497.628 258L498.516 257.592ZM498.102 247.236L499.064 247.408L502.516 228.077L501.554 227.905L500.592 227.733L497.14 247.064L498.102 247.236ZM501.554 227.905L502.169 228.665L505.069 226.318L504.454 225.558L503.839 224.798L500.939 227.145L501.554 227.905ZM504.454 225.558L503.515 225.283C501.327 232.76 498.51 239.111 495.075 244.353L495.893 244.889L496.711 245.425C500.272 239.989 503.162 233.453 505.392 225.833L504.454 225.558ZM495.893 244.889L495.075 244.353C491.624 249.621 487.973 253.619 484.137 256.385L484.708 257.178L485.28 257.971C489.36 255.03 493.166 250.835 496.711 245.425L495.893 244.889ZM484.708 257.178L484.149 256.376C480.309 259.055 476.635 260.343 473.11 260.343V261.32V262.298C477.133 262.298 481.191 260.824 485.268 257.98L484.708 257.178ZM481.947 251.241V252.218C484.431 252.218 486.848 251.231 489.181 249.384L488.575 248.617L487.968 247.851C485.883 249.501 483.881 250.263 481.947 250.263V251.241ZM488.575 248.617L489.181 249.384C491.484 247.561 493.576 245.225 495.464 242.394L494.65 241.851L493.837 241.309C492.043 244 490.084 246.175 487.968 247.851L488.575 248.617ZM494.65 241.851L495.451 242.412C497.422 239.596 499.067 236.636 500.383 233.534L499.483 233.152L498.583 232.771C497.321 235.744 495.744 238.584 493.849 241.291L494.65 241.851ZM499.483 233.152L500.377 233.547C501.781 230.366 502.729 227.437 503.207 224.763L502.244 224.591L501.282 224.42C500.839 226.901 499.947 229.679 498.588 232.758L499.483 233.152ZM502.244 224.591L503.207 224.763C503.962 220.516 503.714 216.993 502.277 214.324L501.416 214.788L500.555 215.251C501.696 217.37 502 220.383 501.282 224.42L502.244 224.591ZM501.416 214.788L502.277 214.324C501.561 212.996 500.616 211.956 499.428 211.254C498.24 210.552 496.866 210.22 495.341 210.22V211.198V212.175C496.577 212.175 497.596 212.442 498.433 212.937C499.27 213.431 499.982 214.187 500.555 215.251L501.416 214.788ZM495.341 211.198V210.22C492.474 210.22 489.726 211.403 487.112 213.629L487.746 214.374L488.38 215.118C490.737 213.11 493.052 212.175 495.341 212.175V211.198ZM487.746 214.374L487.112 213.629C484.51 215.846 482.229 218.855 480.253 222.618L481.118 223.073L481.984 223.527C483.874 219.926 486.012 217.135 488.38 215.118L487.746 214.374ZM481.118 223.073L480.253 222.618C478.265 226.404 476.856 230.738 476.013 235.609L476.976 235.776L477.939 235.943C478.753 231.24 480.105 227.105 481.984 223.527L481.118 223.073ZM476.976 235.776L476.011 235.623C475.545 238.557 475.33 241.082 475.377 243.185C475.425 245.277 475.733 247.022 476.371 248.35L477.252 247.927L478.134 247.504C477.666 246.53 477.377 245.1 477.332 243.141C477.288 241.194 477.487 238.794 477.942 235.929L476.976 235.776ZM477.252 247.927L476.378 248.364C476.982 249.572 477.744 250.542 478.691 251.211C479.648 251.886 480.745 252.218 481.947 252.218V251.241V250.263C481.124 250.263 480.426 250.043 479.818 249.613C479.2 249.177 478.627 248.491 478.127 247.49L477.252 247.927Z" fill="#671120" mask="url(#path-2-outside-1_150_2762)"/>
<path d="M6.24484 166V110.391H25.6607L40.0115 133.183L54.2568 110.391H73.3561V166H56.6838V133.183L42.333 155.764H37.479L22.9171 133.078V166H6.24484ZM107.891 166.844C102.123 166.844 97.128 165.683 92.9071 163.362C88.7566 161.041 85.5558 157.769 83.3047 153.549C81.0536 149.257 79.9281 144.228 79.9281 138.459C79.9281 132.691 81.0888 127.626 83.4102 123.264C85.7317 118.903 88.9677 115.491 93.1182 113.029C97.339 110.566 102.298 109.335 107.997 109.335C112.077 109.335 115.735 110.004 118.971 111.34C122.207 112.677 124.95 114.576 127.201 117.038C129.453 119.43 131.176 122.314 132.372 125.691C133.568 129.068 134.131 132.796 134.06 136.876C134.06 137.931 134.025 138.987 133.955 140.042C133.884 141.027 133.709 142.047 133.427 143.102H96.4948C96.7059 144.861 97.2335 146.479 98.0776 147.956C98.9218 149.433 100.118 150.594 101.665 151.438C103.213 152.282 105.183 152.704 107.575 152.704C109.263 152.704 110.775 152.529 112.112 152.177C113.519 151.755 114.68 151.192 115.594 150.488C116.509 149.715 117.107 148.87 117.388 147.956H133.849C132.935 152.388 131.176 156.011 128.573 158.825C125.97 161.568 122.875 163.608 119.287 164.945C115.7 166.211 111.901 166.844 107.891 166.844ZM96.8114 131.811H118.232C118.232 130.334 117.845 128.892 117.071 127.485C116.368 126.078 115.242 124.952 113.695 124.108C112.147 123.194 110.142 122.736 107.68 122.736C105.288 122.736 103.283 123.194 101.665 124.108C100.047 125.023 98.8515 126.183 98.0776 127.59C97.3038 128.997 96.8817 130.404 96.8114 131.811ZM140.623 166V110.391H157.401V130.756H175.973V110.391H192.75V166H175.973V145.846H157.401V166H140.623ZM197.89 166L213.19 145.529C209.813 144.544 207 142.61 204.748 139.725C202.568 136.771 201.477 133.289 201.477 129.279C201.477 125.48 202.11 122.35 203.377 119.887C204.643 117.425 206.366 115.526 208.547 114.189C210.798 112.782 213.296 111.797 216.039 111.235C218.853 110.672 221.773 110.391 224.797 110.391H252.233V166H235.561V149.011H228.807L217.622 166H197.89ZM227.013 135.293H235.561V124.636H225.22C224.094 124.636 223.074 124.741 222.159 124.952C221.245 125.163 220.471 125.515 219.838 126.008C219.275 126.43 218.818 126.957 218.466 127.59C218.185 128.224 218.044 128.962 218.044 129.806C218.044 130.932 218.326 131.882 218.888 132.655C219.451 133.359 220.19 133.922 221.104 134.344C222.019 134.695 223.004 134.942 224.059 135.082C225.114 135.223 226.099 135.293 227.013 135.293ZM312.814 166.844C309.789 166.844 306.729 166.492 303.634 165.789C300.609 165.086 297.795 163.96 295.192 162.412C292.66 160.865 290.549 158.825 288.861 156.292C287.173 153.76 286.153 150.699 285.801 147.112H302.051C302.262 148.378 302.86 149.433 303.845 150.277C304.9 151.122 306.202 151.755 307.749 152.177C309.367 152.529 310.985 152.704 312.603 152.704C314.08 152.704 315.487 152.564 316.824 152.282C318.161 151.931 319.251 151.403 320.095 150.699C320.939 149.926 321.361 148.906 321.361 147.639C321.361 146.655 321.115 145.881 320.623 145.318C320.201 144.755 319.568 144.368 318.723 144.157C317.879 143.876 316.789 143.735 315.452 143.735H305.85V131.917H313.236C314.503 131.917 315.558 131.846 316.402 131.706C317.246 131.495 317.95 131.213 318.512 130.862C319.075 130.439 319.462 129.982 319.673 129.49C319.884 128.997 319.99 128.47 319.99 127.907C319.99 126.711 319.638 125.797 318.934 125.163C318.231 124.46 317.316 123.968 316.191 123.686C315.065 123.405 313.799 123.264 312.392 123.264C310.844 123.264 309.332 123.475 307.855 123.897C306.377 124.249 305.146 124.812 304.161 125.586C303.177 126.359 302.544 127.415 302.262 128.751H286.434C287.137 123.686 288.791 119.782 291.393 117.038C294.067 114.224 297.267 112.255 300.996 111.129C304.724 109.933 308.593 109.335 312.603 109.335C315.276 109.335 317.95 109.582 320.623 110.074C323.366 110.566 325.864 111.446 328.115 112.712C330.366 113.908 332.195 115.526 333.602 117.566C335.009 119.606 335.712 122.174 335.712 125.269C335.712 127.309 335.29 129.314 334.446 131.284C333.602 133.183 332.336 134.625 330.647 135.61C333.039 136.876 334.763 138.635 335.818 140.886C336.873 143.137 337.401 145.564 337.401 148.167C337.401 151.614 336.662 154.533 335.185 156.925C333.778 159.317 331.843 161.252 329.381 162.729C326.989 164.206 324.351 165.261 321.467 165.894C318.583 166.528 315.698 166.844 312.814 166.844ZM370.124 166.844C364.566 166.844 359.607 165.719 355.245 163.468C350.954 161.216 347.577 157.98 345.115 153.76C342.653 149.468 341.422 144.333 341.422 138.354C341.422 132.233 342.653 127.028 345.115 122.736C347.648 118.375 351.059 115.069 355.351 112.818C359.642 110.496 364.496 109.335 369.913 109.335C375.4 109.335 380.254 110.531 384.474 112.923C388.695 115.244 392.037 118.586 394.499 122.948C396.961 127.239 398.192 132.444 398.192 138.565C398.192 144.544 396.996 149.644 394.604 153.865C392.283 158.086 389.012 161.322 384.791 163.573C380.57 165.754 375.681 166.844 370.124 166.844ZM369.807 151.333C372.832 151.333 375.189 150.699 376.877 149.433C378.636 148.167 379.867 146.549 380.57 144.579C381.344 142.61 381.731 140.569 381.731 138.459C381.731 136.349 381.344 134.238 380.57 132.128C379.867 130.017 378.636 128.294 376.877 126.957C375.189 125.55 372.832 124.847 369.807 124.847C366.852 124.847 364.496 125.55 362.737 126.957C360.978 128.294 359.712 130.017 358.938 132.128C358.165 134.238 357.778 136.349 357.778 138.459C357.778 140.64 358.165 142.715 358.938 144.685C359.712 146.655 360.978 148.273 362.737 149.539C364.496 150.735 366.852 151.333 369.807 151.333ZM404.693 166V110.391H433.606C435.998 110.391 438.354 110.566 440.676 110.918C443.068 111.27 445.248 111.973 447.218 113.029C449.188 114.013 450.771 115.491 451.967 117.46C453.233 119.36 453.866 121.963 453.866 125.269C453.866 126.817 453.62 128.294 453.127 129.701C452.635 131.108 451.967 132.339 451.122 133.394C450.278 134.449 449.364 135.293 448.379 135.927C450.911 136.982 452.776 138.565 453.971 140.675C455.238 142.715 455.871 145.353 455.871 148.589C455.871 151.895 455.167 154.674 453.76 156.925C452.424 159.106 450.63 160.865 448.379 162.201C446.198 163.538 443.841 164.523 441.309 165.156C438.847 165.719 436.49 166 434.239 166H404.693ZM421.471 151.544H433.289C434.556 151.544 435.646 151.368 436.56 151.016C437.545 150.664 438.284 150.172 438.776 149.539C439.339 148.906 439.621 148.061 439.621 147.006C439.621 146.232 439.445 145.599 439.093 145.107C438.812 144.544 438.354 144.087 437.721 143.735C437.158 143.383 436.455 143.137 435.611 142.996C434.767 142.856 433.852 142.785 432.867 142.785H421.471V151.544ZM421.471 132.233H431.284C432.269 132.233 433.149 132.163 433.922 132.022C434.767 131.882 435.47 131.635 436.033 131.284C436.666 130.862 437.158 130.369 437.51 129.806C437.862 129.244 438.038 128.61 438.038 127.907C438.038 126.852 437.756 126.043 437.194 125.48C436.701 124.917 435.963 124.53 434.978 124.319C434.063 124.108 433.043 124.003 431.918 124.003H421.471V132.233ZM465.715 191.958V174.758C468.599 174.758 470.956 174.547 472.785 174.125C474.684 173.773 476.267 173.14 477.533 172.226C478.799 171.382 479.925 170.151 480.91 168.533L458.012 110.391H477.322L490.618 149.855L500.748 110.391H518.792L504.335 159.563C503.491 162.588 502.506 165.508 501.381 168.321C500.326 171.135 499.094 173.773 497.688 176.236C496.351 178.698 494.768 180.914 492.939 182.883C491.18 184.853 489.14 186.506 486.819 187.843C484.92 188.968 483.02 189.813 481.121 190.375C479.292 190.938 477.146 191.325 474.684 191.536C472.292 191.817 469.302 191.958 465.715 191.958ZM535.877 166V125.269H518.15V110.391H570.488V125.269H552.549V166H535.877Z" fill="#671120"/>
<path d="M7.49198 79V4.29125H70.699V79H53.6046V20.0139H24.5864V79H7.49198ZM81.4843 99.9986V23.3905H96.9959L97.8401 30.0383C100.302 27.0837 103.046 25.0788 106.071 24.0236C109.096 22.9684 112.261 22.4408 115.568 22.4408C120.703 22.4408 125.029 23.7071 128.547 26.2396C132.064 28.7721 134.737 32.2191 136.566 36.5806C138.395 40.9422 139.31 45.8313 139.31 51.248C139.31 56.6648 138.395 61.5539 136.566 65.9154C134.737 70.2066 131.958 73.6184 128.23 76.1509C124.502 78.6131 119.753 79.8442 113.985 79.8442C111.452 79.8442 109.166 79.5628 107.126 79C105.156 78.3669 103.433 77.5931 101.955 76.6785C100.478 75.764 99.247 74.8143 98.2622 73.8295V99.9986H81.4843ZM111.03 64.6492C114.125 64.6492 116.517 63.9809 118.206 62.6443C119.894 61.3077 121.09 59.6193 121.793 57.5793C122.497 55.5392 122.849 53.4991 122.849 51.4591C122.849 49.2079 122.462 47.0272 121.688 44.9168C120.914 42.736 119.648 40.9773 117.889 39.6407C116.13 38.3041 113.739 37.6358 110.714 37.6358C107.97 37.6358 105.649 38.3041 103.749 39.6407C101.92 40.907 100.513 42.5601 99.5284 44.6002C98.6139 46.6403 98.1566 48.821 98.1566 51.1425C98.1566 53.464 98.6139 55.6447 99.5284 57.6848C100.443 59.7249 101.85 61.4132 103.749 62.7498C105.649 64.016 108.076 64.6492 111.03 64.6492ZM145.427 79V23.3905H162.205V53.1474C162.627 52.5143 163.049 51.8811 163.472 51.248C163.964 50.6149 164.456 50.0521 164.949 49.5597L185.631 23.3905H199.771V79H182.993V50.0873C182.5 50.8611 181.973 51.5998 181.41 52.3032C180.847 52.9364 180.285 53.6047 179.722 54.3081L160.2 79H145.427ZM208.443 79V23.3905H237.356C239.748 23.3905 242.104 23.5664 244.426 23.9181C246.818 24.2699 248.998 24.9733 250.968 26.0285C252.938 27.0134 254.521 28.4907 255.717 30.4604C256.983 32.3598 257.616 34.9626 257.616 38.269C257.616 39.8166 257.37 41.2939 256.877 42.7008C256.385 44.1078 255.717 45.3389 254.872 46.3941C254.028 47.4493 253.114 48.2934 252.129 48.9266C254.661 49.9818 256.526 51.5646 257.721 53.675C258.988 55.7151 259.621 58.3531 259.621 61.5891C259.621 64.8954 258.917 67.6741 257.51 69.9252C256.174 72.106 254.38 73.8647 252.129 75.2012C249.948 76.5378 247.591 77.5227 245.059 78.1558C242.597 78.7186 240.24 79 237.989 79H208.443ZM225.221 64.5436H237.039C238.306 64.5436 239.396 64.3678 240.311 64.016C241.295 63.6643 242.034 63.1719 242.526 62.5387C243.089 61.9056 243.371 61.0615 243.371 60.0062C243.371 59.2324 243.195 58.5993 242.843 58.1069C242.562 57.5441 242.104 57.0868 241.471 56.7351C240.908 56.3834 240.205 56.1372 239.361 55.9965C238.517 55.8558 237.602 55.7854 236.617 55.7854H225.221V64.5436ZM225.221 45.2333H235.034C236.019 45.2333 236.899 45.163 237.672 45.0223C238.517 44.8816 239.22 44.6354 239.783 44.2836C240.416 43.8616 240.908 43.3691 241.26 42.8064C241.612 42.2436 241.788 41.6104 241.788 40.907C241.788 39.8518 241.506 39.0428 240.944 38.48C240.451 37.9172 239.713 37.5303 238.728 37.3193C237.813 37.1082 236.793 37.0027 235.668 37.0027H225.221V45.2333ZM292.468 79.8442C286.7 79.8442 281.705 78.6834 277.484 76.362C273.334 74.0405 270.133 70.7694 267.882 66.5485C265.631 62.2574 264.505 57.2275 264.505 51.4591C264.505 45.6906 265.666 40.6256 267.987 36.2641C270.309 31.9025 273.545 28.4907 277.695 26.0285C281.916 23.5664 286.876 22.3353 292.574 22.3353C296.654 22.3353 300.312 23.0036 303.548 24.3402C306.784 25.6768 309.528 27.5762 311.779 30.0383C314.03 32.4301 315.753 35.3144 316.949 38.691C318.145 42.0677 318.708 45.7961 318.637 49.8762C318.637 50.9315 318.602 51.9867 318.532 53.0419C318.462 54.0267 318.286 55.0468 318.004 56.102H281.072C281.283 57.8607 281.811 59.4786 282.655 60.9559C283.499 62.4332 284.695 63.594 286.243 64.4381C287.79 65.2823 289.76 65.7044 292.152 65.7044C293.84 65.7044 295.353 65.5285 296.689 65.1768C298.096 64.7547 299.257 64.1919 300.171 63.4884C301.086 62.7146 301.684 61.8705 301.965 60.9559H318.426C317.512 65.3878 315.753 69.0107 313.15 71.8246C310.548 74.5681 307.452 76.6082 303.865 77.9448C300.277 79.211 296.478 79.8442 292.468 79.8442ZM281.389 44.8112H302.809C302.809 43.334 302.422 41.8918 301.649 40.4849C300.945 39.0779 299.82 37.9524 298.272 37.1082C296.724 36.1937 294.719 35.7365 292.257 35.7365C289.865 35.7365 287.861 36.1937 286.243 37.1082C284.625 38.0227 283.429 39.1835 282.655 40.5904C281.881 41.9974 281.459 43.4043 281.389 44.8112ZM338.39 79V38.269H320.663V23.3905H373.001V38.269H355.063V79H338.39ZM380.464 52.9364L379.303 4.29125H397.558L396.292 52.9364H380.464ZM388.378 79.9497C386.76 79.9497 385.142 79.598 383.524 78.8945C381.976 78.1207 380.675 77.0303 379.619 75.6233C378.635 74.146 378.142 72.2467 378.142 69.9252C378.142 67.6741 378.635 65.8451 379.619 64.4381C380.675 62.9608 381.976 61.8704 383.524 61.167C385.071 60.3932 386.689 60.0062 388.378 60.0062C390.981 60.0062 393.302 60.8504 395.342 62.5387C397.452 64.1567 398.508 66.6189 398.508 69.9252C398.508 72.2467 397.98 74.146 396.925 75.6233C395.94 77.0303 394.674 78.1207 393.126 78.8945C391.578 79.598 389.996 79.9497 388.378 79.9497Z" fill="#671120"/>
</svg>
